<svg fill="none" height="37" viewBox="0 0 140 37" width="140" xmlns="http://www.w3.org/2000/svg" xmlns:xlink="http://www.w3.org/1999/xlink"><clipPath id="a"><path d="m0 10h18v17h-18z"/></clipPath><clipPath id="b"><path d="m24 10h18v17h-18z"/></clipPath><clipPath id="c"><path d="m48 10h18v17h-18z"/></clipPath><clipPath id="d"><path d="m72 10h18v17h-18z"/></clipPath><g clip-path="url(#a)"><path d="m9 10 2.1 6.5h6.9l-5.6 4 2.2 6.5-5.6-4-5.6 4 2.2-6.5-5.6-4h6.9z" fill="#83b3d3"/></g><g clip-path="url(#b)"><path d="m33 10 2.1 6.5h6.9l-5.6 4 2.2 6.5-5.6-4-5.6 4 2.2-6.5-5.6-4h6.9z" fill="#83b3d3"/></g><g clip-path="url(#c)"><path d="m57 10 2.1 6.5h6.9l-5.6 4 2.2 6.5-5.6-4-5.6 4 2.2-6.5-5.6-4h6.9z" fill="#83b3d3"/></g><g clip-path="url(#d)"><path d="m81 10 2.1 6.5h6.9l-5.6 4 2.2 6.5-5.6-4-5.6 4 2.2-6.5-5.6-4h6.9z" fill="#83b3d3"/></g></svg>