<svg fill="none" height="76" viewBox="0 0 76 76" width="76" xmlns="http://www.w3.org/2000/svg"><path d="m67.6 22.4625h-.1-24.7c13.8-6.9049 14.9-11.3079 14.4-13.70962-1.2-4.00281-5.7-7.00491-10-5.40379-5.6 2.10147-7.1 10.40731-8.6 16.41151-2-6.1043-3.8-13.80969-8.2-17.71242-1.3-1.100773-3.1-2.301614-5.8-2.0014036-4 .4002806-9.8 5.4037836-7.5 11.0077236 2.3 5.4038 9.7 8.8062 14.6 11.5081h-22-.3c-1.6 0-2.9 1.3009-2.9 2.902v11.3079c0 1.6011 1.3 2.902 2.9 2.902h.3v33.3234 2.4017.6004h57.8v-.5004-2.5017-33.4234h.1c1.6 0 2.9-1.3009 2.9-2.9021v-11.3079c0-1.6011-1.3-2.902-2.9-2.902zm-18.7-16.61166c2.1-.30021 5 1.30092 5.3 3.20225.4 2.80201-3.4 5.30371-5.1 6.40451-2.5 1.7012-4.9 2.6018-7.3 4.1028.9-3.7025 2.5-13.00907 7.1-13.70956zm-22.9 10.00706c-2.2-1.5011-6.5-4.4031-6.4-7.80551.1-3.60253 5.7-6.60463 8.8-3.90274 3.9 3.40238 5.7 11.10775 7.1 16.61165-3.2-1.5011-6.3-2.802-9.5-4.9034zm6 57.14h-19.4v-33.4234h19.4zm0-36.5256h-22.5v-11.0077h22.5zm10.2 0v3.0021 33.5235h-7.2v-33.4234-3.0021-11.0077h7.2zm22.3 36.5256h-19.4v-33.4234h19.4zm2.9-36.5256h-22.3v-11.0077h22.3z" fill="#83b3d3"/></svg>