<svg fill="none" height="72" viewBox="0 0 76 72" width="76" xmlns="http://www.w3.org/2000/svg"><g fill="#83b3d3"><path d="m71.5757 47.7h-65.9654c-2.30578 0-4.1103 1.9-4.1103 4.3v3.5c0 2.4 1.90477 4.3 4.1103 4.3h.90227v1.1c0 5.5 4.31083 10.1 9.62413 10.1h44.7121c5.3133 0 9.6241-4.5 9.6241-10.1v-1.1h.9023c2.3058 0 4.1103-1.9 4.1103-4.3v-3.5c.2005-2.3-1.7043-4.3-3.9098-4.3zm-3.9098 13.2c0 3.9-3.0076 7-6.7169 7h-44.8123c-3.7093 0-6.71685-3.2-6.71685-7v-1.1h58.24605zm5.1128-5.4c0 .7-.6015 1.3-1.203 1.3h-66.06565c-.70176 0-1.20301-.6-1.20301-1.3v-3.5c0-.7.60151-1.3 1.20301-1.3h65.96535c.7018 0 1.203.6 1.203 1.3.1003 0 .1003 3.5.1003 3.5z"/><path d="m17.1392 39.4 5.4136 4.1 5.3133-4.1 5.3133 4.1 5.3133-4.1 5.4136 4.1 5.3133-4.1 5.3133 4.1 5.4136-4.1 5.3133 4.1 6.2156-4.7-1.7043-2.5-4.5113 3.4-5.3133-4.1-5.4136 4.1-5.3133-4.1-5.3133 4.1-5.4136-4.1-5.3133 4.1-5.3133-4.1-5.3133 4.1-5.4136-4.1-5.3133 4.1-4.51132-3.4-1.70428 2.5 6.2156 4.7z"/><path d="m9.52011 32.5h60.95279c0-.6.1003-1.2.1003-1.9 0-.4 0-.8 0-1.2-.7018-15.7-14.737-28.4-31.9802-28.4-17.3435 0-31.37868 12.7-32.08043 28.5v1.2c0 .6-.00442 1.2.09583 1.8zm29.07289-28.5c15.6392 0 28.4714 11.3 29.0729 25.5h-58.14579c.60149-14.1 13.43369-25.5 29.07289-25.5z"/><path d="m38.593 18.3c1.052 0 1.9048-.8954 1.9048-2s-.8528-2-1.9048-2-1.9048.8954-1.9048 2 .8528 2 1.9048 2z"/><path d="m30.7734 13.2c1.052 0 1.9048-.8954 1.9048-2s-.8528-2-1.9048-2-1.9048.8954-1.9048 2 .8528 2 1.9048 2z"/><path d="m46.3123 13.2c1.052 0 1.9048-.8954 1.9048-2s-.8528-2-1.9048-2c-1.0519 0-1.9047.8954-1.9047 2s.8528 2 1.9047 2z"/></g></svg>