<svg fill="none" height="70" viewBox="0 0 140 70" width="140" xmlns="http://www.w3.org/2000/svg" xmlns:xlink="http://www.w3.org/1999/xlink"><clipPath id="a"><path d="m0 0h140v70h-140z"/></clipPath><g clip-path="url(#a)"><path d="m140 0h-140l60.3623 65.7c5.2754 5.8 14 5.8 19.2754 0z" fill="#81b3d3"/><path d="m37.2318.5 32.5652 37.9 32.464-37.7z" fill="#23a9e1"/><path d="m61.9856 14.7h17.5507c-1.3188-.8-4.4638-4.6-6.0869-3.2-.1015.1-4.9711-5.69999-8.116-2.89999-2.7391 2.49999-4.058-.3-7.1014 1.59999-3.6522 2.4 2.0289 3.7 3.7536 4.5zm27.0869-3.5-9.942.1c3.9565-4.49999 5.6812-3.99999 9.942-.1z" fill="#fff"/><path d="m99.0145 3.6v-2.4h2.1305zm-49.9131 9.4c.1015.1 2.4348-2.4 6.1884-4.9 3.4493-2.3 8.7247-4.9 14.6087-4.9 5.8841 0 11.2609 2.7 14.7102 5 3.7536 2.4 6.0869 4.8 6.1884 4.9l-2.5362 3c-4.5653.6-7.8116 3.9-12.2754 3.2-2.2319-.4-2.3333-1.6-2.942-2.9-.5073-1-1.3189-.8-2.3334-1.2-.913-.4-1.5217-1.1-3.4492-.7-1.6232.4-1.8261 2.9-3.9566 2.8-1.1159-.1-1.2174-1.6-2.8405-3.6-4.1595-4.9-7.9531-4.28955-10.5908.2104zm-8.5217-11.8v1.9l-1.6232-1.9zm54.6812 0h3.2463v3l-3.2463 3.8zm-4.1595 11.4v-11.4h3.5508v7.4zm-.5072-10.4v9.9c-1.1159-1.1-2.3333-2.1-3.6522-3zm-4.1594-.3v6.8c-.5073-.3-.9131-.7-1.5218-1-.7101-.4-1.4203-.9-2.2318-1.3zm-4.4638-.2v4.3c-1.0145-.5-2.1304-1-3.1449-1.5zm.6087-.5h3.7536l-3.7536 4.6zm4.3623 0h3.6522l-3.6522 7.1zm-8.9275 0h3.9565l-3.5507 3.1c-.1015 0-.2029-.1-.3044-.1zm-.5073.4v2.4c-1.0145-.4-2.0289-.7-3.1449-.9zm-4.2608 0v1.3c-.7102-.1-1.4203-.2-2.2319-.3zm-6.8986 0 2.2319 1c-.8116 0-1.5217.1-2.2319.3zm-4.1594 0 3.1449 1.5c-1.1159.2-2.1304.5-3.1449.9zm3.6522 1.2-3.3479-1.6h3.3479zm3.5507-.4-2.8406-1.3h2.8406zm.7101-1.2h2.9421l-2.9421 1.3zm3.7537 0h3.2463l-3.2463 1.6zm-12.5797 3.1-3.5508-3.1h3.9566v3zm-3.6522-2.6 3.1449 2.7c-1.1159.4-2.1304.9-3.1449 1.5zm-4.3623.2 3.6521 4.5c-1.3188.7-2.5362 1.5-3.6521 2.4zm-4.2609.3 3.6522 7c-1.3189 1-2.5363 2-3.6522 3.2zm3.7536 6-3.6522-7.1h3.6522zm4.3623-2.5-3.7536-4.6h3.7536zm-12.7826 1.8-3.2464-3.8v-2.5h3.2464zm.6087-6.3h3.5507v11.2l-3.5507-4.2zm-8.4203-1.2v14.6l33.4783 39.9 33.478-39.5v-15z" fill="#491213"/><path d="m67.3623 46 2.6377-4.2 2.6376 4.2-2.6376 4.2z" fill="#23a9e1"/><path d="m75.2753 30.6c-3.4493-2-2.6377-3.5.2029-4.9 1.5217-.7 4.8696-3.4 6.1884-2.5zm-2.3333 2.5c-2.029-.1-4.3624-.4-6.3913.1 1.2173.3 4.2608 1.2 1.4202 1.9 1.0145 1.4 2.6377 1.3 3.6522.1-.4058-.2-.7101-.5-1.0145-.7 1.116-.3 2.1305-.9 2.3334-1.4zm1.2173-1.6c-.913-.8-1.9275-.8-2.7391 0-1.2174-2.1-5.4782-1.4-7.5072-1.7 1.1159 2.6 9.7391 3.1 10.2463 1.7zm-6.8985-2.2c-1.6232-.5-6.8986-.4-3.4493-1.8 1.116-.4 6.7971.1 3.4493 1.8zm2.029-3c-.5073-1.1.4058-2.4 1.7246-1.4 1.2174.8-.6087 2-1.7246 1.4zm-2.942.1c-2.3334.7-5.3769-.8-1.6232-1.5 2.3333-.5 4.7681.5 1.6232 1.5zm-2.6377-6.2c-.5073 1.6-1.5218 1.9-1.4203 0 .1014-2.3 1.6232-1.7 3.2464-2.6 1.3188-.7 2.0289-3.4 4.3623-1.8 1.0145.7 2.2319.1 2.5362 1.2 0-.1-2.942 6.7-1.3188 6.7-3.2464 0-1.8261-3.8-.6087-6.4-1.2174.6-3.145 4.3-1.5218 5-.8116 1.1-3.4492 2.6-4.7681 1.5-1.1159-1-.5072-2.3-.5072-3.6zm-4.058 2.8c-5.6812 0-1.8261-8.6.1015-8.1 2.2318.7 1.9275 8.2-.1015 8.1zm-6.2899-8.2c-2.6376-.1-1.5217-2.6.3044-3.1 1.7246-.5 5.2754 1.1 6.4927 2.2-1.826.6-4.1594.5-6.1884.6-.2029-2-.7101-1.3-.6087.3z" fill="#dc6243"/><path d="m72.8406 25.8c-2.942-3 4.3624-2.7 5.5797-3.8.8116.3 7.1015-5.4 8.6232-5-1.1159 1.3-3.4492 5.3-5.0724 5.3-1.3189 0-2.6377-.2-3.6522.7-1.5218 1.4-3.9565 2.1-5.4783 2.8z" fill="#f49774"/><path d="m73.7537 22.2c-1.6232.9-3.1449-2.5-.3043-2.2 1.826.2 3.7536-.2 5.4782.1-1.3188 1.5-3.1449 2.3-5.1739 2.1z" fill="#f4b1a4"/><path d="m51.8406 20.9c.3044.4.6087.8.5073 1.4 0 .4-.6087 1-.2029 1.2l1.5217-1.8c-.4058-.1-3.5507-3.8-3.5507-4.2l-2.1304 1.1c.1014.4.8115 0 1.2173 0 .5073 0 .9131.4 1.3189.7-1.116.9-3.8551 3.3-4.1594 3.3-.1015 0-.7102-.4-.7102 0 0 .2.6087.7.7102.8l1.4203 1.7c.4058-.2-.1015-.5.1014-.8.1015-.2 3.2464-2.7 3.9565-3.4zm-3.4492-4.5c.3043-.1.4057.3.6086 0l-1.6231-1.9c-.2029-.3-.5073-.6-.5073 0 .1015.4-4.058 3.7-4.2609 3.8-.3043.1-.5072-.3-.7101.1.5072.6.913 1.1 1.4203 1.7.2029.2.3043.4.5072.6s.1015-.4.1015-.4c-.1015-.3.3043-.6.6087-.8 1.0145-1 3.5507-3.1 3.8551-3.1zm-5.7827-.6c-1.1159.3-2.4347-.1-2.7391-1.3-.4058-1.2.4058-2.4 1.3188-3.1.9131-.7 2.3334-.6 2.8406.5.2029.5.1015 1.1-.1014 1.6-.1015.3-.4058.6 0 .8.6087-.7 1.1159-1.4 1.7246-2.1-.7101-.4-1.0145-1.1-1.5217-1.7-.6087-.70001-1.3189-1.40001-2.3334-1.50001-1.9275-.3-3.6521 1.70001-3.855 3.40001-.1015.9.2029 1.8.8116 2.6.5072.6 1.2174 1.1 1.6232 1.8.2029.1 1.826-.7 2.1304-.8.2029 0 .1014-.1.1014-.2-.5072.2 0 0 0 0zm25.8696 23.6c-.7101-.5-2.6377-3-3.0435-3.5l-.2029-.3-.2029.1c-.1014.1.1015.4 0 .6-.5072.8-3.7536 3.2-3.9565 3.4-.4058.2-.8116-.1-1.0145.2.5073.6 1.8261 2.3 2.029 2.3.3043 0 .1014-.5.1014-.6.1015-.2 1.7247-1.6 2.3334-2.1.2029-.2.4058.3.6087.5.2029.3.3043.7.2029 1-.1015.2-.5073.6-.2029.8.4058-.5 1.5217-1.8 1.7246-2s-.4058 0-.3043-.1c-.2029.1-.5073.2-.7102 0-.1014 0-.7101-.7-.6087-.8.3044-.2.6087-.6 1.0145-.7.6087-.1 1.0145 1 1.116 1.4.1014.4.1014.8-.1015 1.1-.1014.3-.3043.5 0 .6l1.4203-1.9c0 .1-.1014.1-.2029 0-.1014 0 .1015.1 0 0zm-9.3333-8.9c-.7102 0-1.4203.3-2.029.8-1.4203 1.2-1.6232 3.3-.5073 4.8 1.3189 1.7 3.4493 1.9 5.174.7 1.4202-1.2 1.6231-3.3.5072-4.8-.8116-1-2.029-1.5-3.1449-1.5zm1.2174 1.4c.913-.1 1.5217.8 1.1159 1.8s-1.4203 2-2.4348 2.4c-1.2174.5-2.029-.5-1.5217-1.7.4058-1 1.4203-2 2.4348-2.4.1014 0 .2029-.1.4058-.1zm-2.8406-4.6c.3043 0 .6087.4.8116 0l-1.4203-1.7c-.4058.2 0 .4-.1015.6-.2029.3-1.7246.5-2.1304.6.1015-.4.6087-1.7.8116-1.8.4058-.3.6087.3.8116-.1l-1.8261-2.1c-.2029-.2-.4058-.7-.6087-.4 0 0 0 1-.1014 1.1-.1015.2-.6087 2.4-1.2174 2.9-.3044.3-1.5218 1.3-1.8261 1.4-.3044.1-.5073-.4-.8116 0l1.6232 1.9c.1014.1.4058.6.5072.6.3044.1 0-.6.1015-.7.1014-.3 1.6232-1.8 2.3333-1.9.913-.2 2.029-.5 3.0435-.4zm24.5507 6.7c.1015.4.2029.9.1015 1.3-.1015.6-.6087 1.9-1.4203 1.5s-1.4203-1.1-2.1305-1.7c.5073-.6 1.0145-1.1 1.9276-.8.2029.1.4058 0 .2029-.2-.3044-.2-2.029-1.3-2.1305-1.2-.2029.2.3044.6.1015 1-.1015.3-.4058.5-.6087.8-.5073-.4-1.2174-.8-.7102-1.5.4058-.4.8116-.8 1.4203-.9.4058-.1 1.2174.3 1.3189-.1-.7102-.3-1.4203-.7-2.1305-1 .1015.5-2.2318 2.9-2.7391 3.5-.1014.1-.4058.4-.4058.5 0 .3.4058.1.4058.1.3044-.1 4.4638 3.3 4.5652 3.6.1015.2-.1014.4 0 .5 0 0 .1015.1.2029.1.3044-.3 2.9421-3.9 3.5507-4-.5072-.8-1.0144-1.6-1.5217-2.4-.4058.2-.1014.7 0 .9zm-4.058 4.4c-1.3188-.9-3.6521.8-4.0579 1-.7102.3-1.2174-.4-.8116-1 .3043-.5.913-.8 1.5217-.8.2029 0 .9131.1.9131 0 .1014-.1.1014-.1 0-.2-.6087-.4-1.116-.8-1.7247-1.1-.1014.7-.913 1.1-1.3188 1.6-.5073.6-1.0145 1.3-1.0145 2s.4058 1.4 1.1159 1.7c.7102.4 1.5218.1 2.2319-.3.4058-.3.8116-.6 1.2174-.8.6087-.3 1.5217 0 1.3188.8-.2029.7-.913 1.3-1.6231 1.5-.4058.1-.8116.1-1.2174-.1-.3044-.1-.6087-.5-.8116-.1l2.3333 1.6c.1015-.5.3043-.7.7101-1 .5073-.4.9131-.9 1.3189-1.4.8116-.9 1.1159-2.5-.1015-3.4zm17.8551-28.1c0 .1 0 .1 0 0l-.913 1-.8116 1c-.2029.2-.3044.3 0 .5.5072-.3 3.5507 4.8 3.3478 5.5-.5072.2-4.5652-3.3-4.6667-3.5 0-.1.2029-.7-.1014-.6-.1015 0-.5073.6-.6087.7l-.6087.7c.2029.3.3043 0 .6087 0 .2029.1 1.2174.9 1.5217 1.1-.5072 0-1.7246.1-1.9275.1-.6087.1-.3044-.4-.7102-.6l-1.5217 1.8-.913 1v.1c.2029.2.1014.1.4058 0 .3043-.1 4.3623 3.2 4.4637 3.4.2029.3-.1014.6.3044.8l1.2174-1.4c.1014-.1.1014-.1 0-.1-.3044-.2-.3044.1-.7102.1-.3043-.1-2.942-2.2-3.8551-3l5.3769-.2c.2029 0 .7101.6.7101.8-.1014.2-.3043.4 0 .5.3044-.4.6087-.7.913-1.1l.1015-.2c.1014 0 .1014-.1.1014-.2l.1015-.1c.3043-.3 1.2174-1.3 1.1159-1.4-.3043-.3-.4058.3-.8116 0-.2029-.2-.8116-1.2-.913-1.4-.2029-.3.4058-.6.6087-.7.5072-.3 2.1304-.8 2.3333.2 0 .2-.2029.4-.1014.5 0 0 .1014.2.2024.1l2.131-2.6c-.102-.1-.102-.1-.203-.2-.507.5-5.5797-1.5-5.884-1.8-.1015-.2-.1015-.8-.3044-.8zm-.2029 2.6c.8116.3 1.5217.6 2.3333 1-.2029.1-.4058.2-.6087.3-.2028.1-.4057.3-.6086.5zm-6.6956 7.7c-1.116-.1-2.2319.4-3.0435 1.3-1.2174 1.5-1.116 3.7.4058 4.9 1.5217 1.2 3.7536.9 4.971-.5 1.2174-1.5 1.1159-3.7-.4058-4.9-.5073-.4-1.2174-.7-1.9275-.8zm-1.4203 1.6c.6087 0 1.3188.4 1.7246.7.8116.5 2.2319 1.7 1.5217 2.7 0-.1.1015-.1-.1014.1-.8116.8-2.2319.1-2.942-.5-.7102-.5-2.029-1.7-1.2174-2.7.3043-.2.6087-.3 1.0145-.3zm-3.145 4.3c-1.2174-.1-2.4347.5-3.3478 1.6-.6087.8-1.3188 1.5-1.9275 2.3.2029.3.5072-.1.8116.1.3043.2 4.1594 3.3 4.1594 3.5.1014.3-.2029.4.1014.6.1015.1 2.9421-3.4 3.2464-4 .4058-1.1.1015-2.4-.8116-3.2.1015.1.2029.1 0 0-.8116-.6-1.5217-.9-2.2319-.9zm-1.1159 1.6h.3043c1.4203.4 3.4493 2.1 2.1305 3.6-.2029.2 0 0-.4058.4-.2029.2-4.2609-3-4.058-3.2.4058-.5 1.3189-.9 2.029-.8z" fill="#fff"/></g></svg>